<svg xmlns="http://www.w3.org/2000/svg" xmlns:xlink="http://www.w3.org/1999/xlink" width="20" height="10.763" viewBox="0 0 20 10.763">
  <defs>
    <clipPath id="clip-path">
      <rect width="20" height="10.763" fill="none"/>
    </clipPath>
  </defs>
  <g id="blogging" clip-path="url(#clip-path)">
    <g id="blogging-2" data-name="blogging" opacity="0.8">
      <g id="Groupe_80" data-name="Groupe 80">
        <g id="Groupe_79" data-name="Groupe 79">
          <path id="Tracé_61" data-name="Tracé 61" d="M2.093,10.523a.782.782,0,0,0,1.127,0l1.875-1.95a.779.779,0,0,0,.218-.54V.78A.781.781,0,0,0,4.531,0H.781A.781.781,0,0,0,0,.78V8.033a.779.779,0,0,0,.218.54ZM1.562,1.56H3.75V7.719L2.656,8.857,1.562,7.719Z" fill="#fff"/>
          <path id="Tracé_62" data-name="Tracé 62" d="M186.78,1.56h11.172a.78.78,0,1,0,0-1.56H186.78a.78.78,0,1,0,0,1.56Z" transform="translate(-178.733)" fill="#fff"/>
          <path id="Tracé_65" data-name="Tracé 65" d="M197.952,118H186.78a.78.78,0,1,0,0,1.56h11.172a.78.78,0,1,0,0-1.56Z" transform="translate(-178.733 -113.399)" fill="#fff"/>
          <path id="Tracé_66" data-name="Tracé 66" d="M197.952,236H186.78a.78.78,0,1,0,0,1.56h11.172a.78.78,0,1,0,0-1.56Z" transform="translate(-178.733 -226.797)" fill="#fff"/>
        </g>
      </g>
    </g>
  </g>
</svg>
