<svg xmlns="http://www.w3.org/2000/svg" xmlns:xlink="http://www.w3.org/1999/xlink" width="18" height="12" viewBox="0 0 18 12">
  <defs>
    <clipPath id="clip-path">
      <rect width="18" height="12" fill="none"/>
    </clipPath>
  </defs>
  <g id="credit-card" clip-path="url(#clip-path)">
    <g id="credit-card-2" data-name="credit-card" transform="translate(0 -85.333)" opacity="0.8">
      <g id="Groupe_9" data-name="Groupe 9" transform="translate(0 85.333)">
        <g id="Groupe_8" data-name="Groupe 8" transform="translate(0 0)">
          <path id="Tracé_6" data-name="Tracé 6" d="M16.125,85.333H1.875A1.878,1.878,0,0,0,0,87.208v8.25a1.878,1.878,0,0,0,1.875,1.875h14.25A1.878,1.878,0,0,0,18,95.458v-8.25A1.878,1.878,0,0,0,16.125,85.333ZM17.25,95.458a1.126,1.126,0,0,1-1.125,1.125H1.875A1.126,1.126,0,0,1,.75,95.458v-8.25a1.126,1.126,0,0,1,1.125-1.125h14.25a1.126,1.126,0,0,1,1.125,1.125v8.25Z" transform="translate(0 -85.333)" fill="#fff"/>
        </g>
      </g>
      <g id="Groupe_11" data-name="Groupe 11" transform="translate(0 87.583)">
        <g id="Groupe_10" data-name="Groupe 10" transform="translate(0 0)">
          <path id="Tracé_7" data-name="Tracé 7" d="M17.625,149.333H.375a.375.375,0,0,0-.375.375v2.25a.375.375,0,0,0,.375.375h17.25a.375.375,0,0,0,.375-.375v-2.25A.375.375,0,0,0,17.625,149.333Zm-.375,2.25H.75v-1.5h16.5v1.5Z" transform="translate(0 -149.333)" fill="#fff"/>
        </g>
      </g>
      <g id="Groupe_13" data-name="Groupe 13" transform="translate(2.25 92.833)">
        <g id="Groupe_12" data-name="Groupe 12" transform="translate(0 0)">
          <path id="Tracé_8" data-name="Tracé 8" d="M68.875,298.667h-4.5a.375.375,0,1,0,0,.75h4.5a.375.375,0,1,0,0-.75Z" transform="translate(-64 -298.667)" fill="#fff"/>
        </g>
      </g>
      <g id="Groupe_15" data-name="Groupe 15" transform="translate(2.25 94.333)">
        <g id="Groupe_14" data-name="Groupe 14" transform="translate(0 0)">
          <path id="Tracé_9" data-name="Tracé 9" d="M68.875,341.333h-4.5a.375.375,0,1,0,0,.75h4.5a.375.375,0,1,0,0-.75Z" transform="translate(-64 -341.333)" fill="#fff"/>
        </g>
      </g>
      <g id="Groupe_17" data-name="Groupe 17" transform="translate(12.75 92.083)">
        <g id="Groupe_16" data-name="Groupe 16" transform="translate(0 0)">
          <path id="Tracé_10" data-name="Tracé 10" d="M364.542,277.333h-.75a1.126,1.126,0,0,0-1.125,1.125v.75a1.126,1.126,0,0,0,1.125,1.125h.75a1.126,1.126,0,0,0,1.125-1.125v-.75A1.126,1.126,0,0,0,364.542,277.333Zm.375,1.875a.375.375,0,0,1-.375.375h-.75a.375.375,0,0,1-.375-.375v-.75a.375.375,0,0,1,.375-.375h.75a.375.375,0,0,1,.375.375Z" transform="translate(-362.667 -277.333)" fill="#fff"/>
        </g>
      </g>
    </g>
  </g>
</svg>
