<svg xmlns="http://www.w3.org/2000/svg" xmlns:xlink="http://www.w3.org/1999/xlink" width="50" height="50" viewBox="0 0 50 50">
  <defs>
    <clipPath id="clip-path">
      <rect width="50" height="50" fill="none"/>
    </clipPath>
    <clipPath id="clip-path-2">
      <rect id="Rectangle_15" data-name="Rectangle 15" width="50" height="50" transform="translate(1018 690)" fill="#ff1744"/>
    </clipPath>
  </defs>
  <g id="Composant_8_1" data-name="Composant 8 – 1" clip-path="url(#clip-path)">
    <g id="Groupe_de_masques_3" data-name="Groupe de masques 3" transform="translate(-1018 -690)" clip-path="url(#clip-path-2)">
      <g id="credit-card_1_" data-name="credit-card (1)" transform="translate(1018 690)">
        <g id="Groupe_41" data-name="Groupe 41">
          <path id="Tracé_26" data-name="Tracé 26" d="M48.047,27.746A1.953,1.953,0,0,0,50,25.793V14.453a7.821,7.821,0,0,0-7.812-7.812H7.813A7.821,7.821,0,0,0,0,14.453V35.547a7.821,7.821,0,0,0,7.813,7.813H42.188A7.821,7.821,0,0,0,50,35.547a1.953,1.953,0,0,0-3.906,0,3.911,3.911,0,0,1-3.906,3.906H7.813a3.911,3.911,0,0,1-3.906-3.906V20.91H46.094v4.883A1.953,1.953,0,0,0,48.047,27.746ZM3.906,17V14.453a3.911,3.911,0,0,1,3.906-3.906H42.188a3.911,3.911,0,0,1,3.906,3.906V17Z" fill="#ff1744"/>
        </g>
      </g>
    </g>
  </g>
</svg>
