<svg xmlns="http://www.w3.org/2000/svg" xmlns:xlink="http://www.w3.org/1999/xlink" width="6.951" height="12.857" viewBox="0 0 6.951 12.857">
  <defs>
    <clipPath id="clip-path">
      <rect width="6.951" height="12.857" fill="none"/>
    </clipPath>
  </defs>
  <g id="facebook-logo" clip-path="url(#clip-path)">
    <g id="facebook-logo-2" data-name="facebook-logo" opacity="0.5">
      <path id="Tracé_72" data-name="Tracé 72" d="M28.766,0,27.1,0a2.928,2.928,0,0,0-3.084,3.164V4.623H22.339a.262.262,0,0,0-.262.262V7a.262.262,0,0,0,.262.262h1.676V12.6a.262.262,0,0,0,.262.262h2.187a.262.262,0,0,0,.262-.262V7.261h1.96A.262.262,0,0,0,28.949,7V4.885a.262.262,0,0,0-.262-.262H26.727V3.386c0-.594.142-.9.916-.9h1.123a.262.262,0,0,0,.262-.262V.265A.262.262,0,0,0,28.766,0Z" transform="translate(-22.077)" fill="#fff"/>
    </g>
  </g>
</svg>
