<svg xmlns="http://www.w3.org/2000/svg" width="78" height="11.497" viewBox="0 0 78 11.497">
  <g id="Groupe_313" data-name="Groupe 313" transform="translate(-116 -1824)">
    <path id="star" d="M11.739,6.257a.861.861,0,0,0-.477-1.468L8.356,4.367a.38.38,0,0,1-.286-.208l-1.3-2.633a.861.861,0,0,0-1.543,0l-1.3,2.633a.38.38,0,0,1-.286.208L.737,4.789A.861.861,0,0,0,.26,6.257l2.1,2.049a.38.38,0,0,1,.11.336l-.5,2.894a.843.843,0,0,0,.188.7.87.87,0,0,0,1.061.209l2.6-1.366a.389.389,0,0,1,.354,0l2.6,1.366a.852.852,0,0,0,.4.1.863.863,0,0,0,.66-.309.842.842,0,0,0,.188-.7l-.5-2.894a.38.38,0,0,1,.11-.336Z" transform="translate(116.001 1822.953)" fill="#ff1744"/>
    <path id="star-2" data-name="star" d="M11.739,6.257a.861.861,0,0,0-.477-1.468L8.356,4.367a.38.38,0,0,1-.286-.208l-1.3-2.633a.861.861,0,0,0-1.543,0l-1.3,2.633a.38.38,0,0,1-.286.208L.737,4.789A.861.861,0,0,0,.26,6.257l2.1,2.049a.38.38,0,0,1,.11.336l-.5,2.894a.843.843,0,0,0,.188.7.87.87,0,0,0,1.061.209l2.6-1.366a.389.389,0,0,1,.354,0l2.6,1.366a.852.852,0,0,0,.4.1.863.863,0,0,0,.66-.309.842.842,0,0,0,.188-.7l-.5-2.894a.38.38,0,0,1,.11-.336Z" transform="translate(150.001 1822.953)" fill="#ff1744"/>
    <path id="star-3" data-name="star" d="M11.739,6.257a.861.861,0,0,0-.477-1.468L8.356,4.367a.38.38,0,0,1-.286-.208l-1.3-2.633a.861.861,0,0,0-1.543,0l-1.3,2.633a.38.38,0,0,1-.286.208L.737,4.789A.861.861,0,0,0,.26,6.257l2.1,2.049a.38.38,0,0,1,.11.336l-.5,2.894a.843.843,0,0,0,.188.7.87.87,0,0,0,1.061.209l2.6-1.366a.389.389,0,0,1,.354,0l2.6,1.366a.852.852,0,0,0,.4.1.863.863,0,0,0,.66-.309.842.842,0,0,0,.188-.7l-.5-2.894a.38.38,0,0,1,.11-.336Z" transform="translate(133.001 1822.953)" fill="#ff1744"/>
    <path id="star-4" data-name="star" d="M11.739,6.257a.861.861,0,0,0-.477-1.468L8.356,4.367a.38.38,0,0,1-.286-.208l-1.3-2.633a.861.861,0,0,0-1.543,0l-1.3,2.633a.38.38,0,0,1-.286.208L.737,4.789A.861.861,0,0,0,.26,6.257l2.1,2.049a.38.38,0,0,1,.11.336l-.5,2.894a.843.843,0,0,0,.188.7.87.87,0,0,0,1.061.209l2.6-1.366a.389.389,0,0,1,.354,0l2.6,1.366a.852.852,0,0,0,.4.1.863.863,0,0,0,.66-.309.842.842,0,0,0,.188-.7l-.5-2.894a.38.38,0,0,1,.11-.336Z" transform="translate(167.001 1822.953)" fill="#ff1744"/>
    <path id="star-5" data-name="star" d="M11.739,6.257a.861.861,0,0,0-.477-1.468L8.356,4.367a.38.38,0,0,1-.286-.208l-1.3-2.633a.861.861,0,0,0-1.543,0l-1.3,2.633a.38.38,0,0,1-.286.208L.737,4.789A.861.861,0,0,0,.26,6.257l2.1,2.049a.38.38,0,0,1,.11.336l-.5,2.894a.843.843,0,0,0,.188.7.87.87,0,0,0,1.061.209l2.6-1.366a.389.389,0,0,1,.354,0l2.6,1.366a.852.852,0,0,0,.4.1.863.863,0,0,0,.66-.309.842.842,0,0,0,.188-.7l-.5-2.894a.38.38,0,0,1,.11-.336Z" transform="translate(182.001 1822.953)" fill="#e2e2e2"/>
  </g>
</svg>
