<svg xmlns="http://www.w3.org/2000/svg" width="24" height="20.25" viewBox="0 0 24 20.25">
  <g id="loading" transform="translate(0 -40)">
    <g id="Groupe_66" data-name="Groupe 66" transform="translate(4.064 40)">
      <g id="Groupe_65" data-name="Groupe 65" transform="translate(0 0)">
        <path id="Tracé_55" data-name="Tracé 55" d="M106.371,51.434a.937.937,0,0,0-1.326-.007l-2.153,2.132V50.125a10.128,10.128,0,0,0-14.881-8.941l-.006,0-.012.007h0l-.028.015-.013.007-.01.005-.163.09-.011.006c-.22.125-.437.26-.647.4a.937.937,0,1,0,1.047,1.556,8.251,8.251,0,0,1,12.85,6.85v3.456L98.86,51.475a.937.937,0,1,0-1.31,1.342l2.424,2.367a2.835,2.835,0,0,0,3.957-.014l2.434-2.409A.938.938,0,0,0,106.371,51.434Z" transform="translate(-86.707 -40)" fill="#303030"/>
      </g>
    </g>
    <g id="Groupe_68" data-name="Groupe 68" transform="translate(0 48.626)">
      <g id="Groupe_67" data-name="Groupe 67" transform="translate(0 0)">
        <path id="Tracé_56" data-name="Tracé 56" d="M1.011,224.016a.936.936,0,0,0-.992.879c-.012.2-.019.412-.019.619,0,.137,0,.276.008.412a.938.938,0,0,0,.936.9H.983a.938.938,0,0,0,.9-.974c0-.111-.007-.225-.007-.338,0-.168.005-.338.015-.505A.938.938,0,0,0,1.011,224.016Z" transform="translate(0 -224.014)" fill="#303030"/>
      </g>
    </g>
    <g id="Groupe_70" data-name="Groupe 70" transform="translate(0.908 53.175)">
      <g id="Groupe_69" data-name="Groupe 69" transform="translate(0 0)">
        <path id="Tracé_57" data-name="Tracé 57" d="M21.551,322.325a8.247,8.247,0,0,1-.4-.738.937.937,0,1,0-1.689.815,10.133,10.133,0,0,0,.5.906.938.938,0,1,0,1.6-.983Z" transform="translate(-19.365 -321.057)" fill="#303030"/>
      </g>
    </g>
    <g id="Groupe_72" data-name="Groupe 72" transform="translate(8.252 58.328)">
      <g id="Groupe_71" data-name="Groupe 71" transform="translate(0 0)">
        <path id="Tracé_58" data-name="Tracé 58" d="M177.919,431.042c-.281,0-.564-.014-.841-.042a.937.937,0,0,0-.188,1.865,10.275,10.275,0,0,0,1.03.052h0a.938.938,0,1,0,0-1.875Z" transform="translate(-176.046 -430.995)" fill="#303030"/>
      </g>
    </g>
    <g id="Groupe_74" data-name="Groupe 74" transform="translate(3.909 56.708)">
      <g id="Groupe_73" data-name="Groupe 73">
        <path id="Tracé_59" data-name="Tracé 59" d="M85.579,397.059a8.278,8.278,0,0,1-.712-.448.938.938,0,0,0-1.078,1.534,10.17,10.17,0,0,0,.874.55.937.937,0,1,0,.917-1.636Z" transform="translate(-83.39 -396.44)" fill="#303030"/>
      </g>
    </g>
    <g id="Groupe_76" data-name="Groupe 76" transform="translate(0.991 44.219)">
      <g id="Groupe_75" data-name="Groupe 75" transform="translate(0 0)">
        <path id="Tracé_60" data-name="Tracé 60" d="M23.055,130.156a.938.938,0,0,0-1.3.281,10.139,10.139,0,0,0-.514.9.937.937,0,1,0,1.672.849,8.262,8.262,0,0,1,.419-.73A.938.938,0,0,0,23.055,130.156Z" transform="translate(-21.143 -130.007)" fill="#303030"/>
      </g>
    </g>
  </g>
</svg>
