<svg xmlns="http://www.w3.org/2000/svg" xmlns:xlink="http://www.w3.org/1999/xlink" width="11.25" height="11.249" viewBox="0 0 11.25 11.249">
  <defs>
    <clipPath id="clip-path">
      <rect width="11.25" height="11.249" fill="none"/>
    </clipPath>
  </defs>
  <g id="rss-symbol" clip-path="url(#clip-path)">
    <g id="rss-symbol-2" data-name="rss-symbol" opacity="0.5">
      <g id="Groupe_82" data-name="Groupe 82" transform="translate(0 0)">
        <path id="Tracé_68" data-name="Tracé 68" d="M1.534,292.382a1.48,1.48,0,0,0-1.087.447,1.543,1.543,0,0,0,0,2.173,1.48,1.48,0,0,0,1.087.447A1.479,1.479,0,0,0,2.62,295a1.543,1.543,0,0,0,0-2.173A1.479,1.479,0,0,0,1.534,292.382Z" transform="translate(0 -284.201)" fill="#fff"/>
        <path id="Tracé_69" data-name="Tracé 69" d="M5.065,148.294A7.064,7.064,0,0,0,3,146.844,7.163,7.163,0,0,0,.551,146.2H.511a.465.465,0,0,0-.343.136.471.471,0,0,0-.168.375v1.079a.491.491,0,0,0,.132.344.485.485,0,0,0,.332.16,4.969,4.969,0,0,1,3.128,1.474A4.968,4.968,0,0,1,5.065,152.9a.5.5,0,0,0,.5.464H6.647a.471.471,0,0,0,.375-.168.485.485,0,0,0,.136-.384,7.167,7.167,0,0,0-.643-2.445A7.065,7.065,0,0,0,5.065,148.294Z" transform="translate(0 -142.111)" fill="#fff"/>
        <path id="Tracé_70" data-name="Tracé 70" d="M10.29,6.727a11.2,11.2,0,0,0-2.349-3.4A11.2,11.2,0,0,0,4.542.979,11.087,11.087,0,0,0,.535.02H.511A.478.478,0,0,0,.16.164.472.472,0,0,0,0,.531V1.674a.489.489,0,0,0,.14.348.478.478,0,0,0,.339.156,9.052,9.052,0,0,1,3.264.815A9.185,9.185,0,0,1,6.427,4.841,9.185,9.185,0,0,1,8.277,7.526a8.931,8.931,0,0,1,.807,3.263.479.479,0,0,0,.156.34.5.5,0,0,0,.356.14h1.142a.472.472,0,0,0,.368-.16.462.462,0,0,0,.144-.375A11.086,11.086,0,0,0,10.29,6.727Z" transform="translate(0 -0.02)" fill="#fff"/>
      </g>
    </g>
  </g>
</svg>
