<svg xmlns="http://www.w3.org/2000/svg" xmlns:xlink="http://www.w3.org/1999/xlink" width="22" height="15.792" viewBox="0 0 22 15.792">
  <defs>
    <clipPath id="clip-path">
      <rect width="22" height="15.792" fill="none"/>
    </clipPath>
  </defs>
  <g id="send-mail" clip-path="url(#clip-path)">
    <path id="send-mail-2" data-name="send-mail" d="M21.709,70.258a1.5,1.5,0,0,0-1.576-.567l-19,4.783a1.5,1.5,0,0,0-.406,2.741l4.018,2.411v5.288a.524.524,0,0,0,.846.413L9.36,82.393l3.1,1.857a1.5,1.5,0,0,0,2.049-.5l7.272-11.819A1.5,1.5,0,0,0,21.709,70.258ZM13.136,82.591,8.426,79.764,13.2,75.646a.181.181,0,0,0-.184-.307L5.742,78.154,2.206,76.032l17.709-4.458Z" transform="translate(0 -69.645)" fill="#fff"/>
  </g>
</svg>
