<svg xmlns="http://www.w3.org/2000/svg" width="108" height="40" viewBox="0 0 108 40">
  <g id="Tracé_102" data-name="Tracé 102" fill="none">
    <path d="M20,0H88a20,20,0,0,1,0,40H20A20,20,0,0,1,20,0Z" stroke="none"/>
    <path d="M 20 1 C 17.4345703125 1 14.9464111328125 1.502212524414063 12.60464477539063 2.492698669433594 C 10.34225463867188 3.449615478515625 8.310211181640625 4.819713592529297 6.564971923828125 6.564971923828125 C 4.819717407226563 8.310214996337891 3.449615478515625 10.34225654602051 2.492698669433594 12.60464286804199 C 1.502212524414063 14.94641494750977 1 17.43457221984863 1 20 C 1 22.56542778015137 1.502212524414063 25.05358505249023 2.492698669433594 27.39535713195801 C 3.449615478515625 29.65774154663086 4.819717407226563 31.68978500366211 6.564971923828125 33.43502807617188 C 8.310211181640625 35.1802864074707 10.34225463867188 36.55038452148438 12.60464477539063 37.50730133056641 C 14.9464111328125 38.49778747558594 17.4345703125 39 20 39 L 88 39 C 90.5654296875 39 93.05357360839844 38.49778747558594 95.39533996582031 37.50730133056641 C 97.65773010253906 36.55038452148438 99.68977355957031 35.1802864074707 101.4350280761719 33.43502807617188 C 103.1802749633789 31.68978500366211 104.5503845214844 29.65774154663086 105.5073013305664 27.39535713195801 C 106.4977874755859 25.05358505249023 107 22.56542778015137 107 20 C 107 17.43457221984863 106.4977874755859 14.94641494750977 105.5073013305664 12.60464286804199 C 104.5503845214844 10.34225654602051 103.1802749633789 8.310214996337891 101.4350280761719 6.564971923828125 C 99.68977355957031 4.819713592529297 97.65773010253906 3.449615478515625 95.39533996582031 2.492698669433594 C 93.05357360839844 1.502212524414063 90.5654296875 1 88 1 L 20 1 M 20 0 L 88 0 C 99.04568481445313 0 108 8.954299926757813 108 20 C 108 31.04570007324219 99.04568481445313 40 88 40 L 20 40 C 8.954299926757813 40 0 31.04570007324219 0 20 C 0 8.954299926757813 8.954299926757813 0 20 0 Z" stroke="none" fill="#ff1744"/>
  </g>
</svg>
