<svg xmlns="http://www.w3.org/2000/svg" xmlns:xlink="http://www.w3.org/1999/xlink" width="14.464" height="11.749" viewBox="0 0 14.464 11.749">
  <defs>
    <clipPath id="clip-path">
      <rect width="14.464" height="11.749" fill="none"/>
    </clipPath>
  </defs>
  <g id="twitter-logo-silhouette" clip-path="url(#clip-path)">
    <g id="twitter-logo-silhouette-2" data-name="twitter-logo-silhouette" opacity="0.5">
      <g id="Groupe_83" data-name="Groupe 83" transform="translate(0)">
        <path id="Tracé_71" data-name="Tracé 71" d="M14.465,58.831a5.925,5.925,0,0,1-1.7.467,2.98,2.98,0,0,0,1.3-1.64,5.982,5.982,0,0,1-1.885.72,2.97,2.97,0,0,0-5.056,2.705,8.424,8.424,0,0,1-6.115-3.1,2.971,2.971,0,0,0,.918,3.961,2.967,2.967,0,0,1-1.344-.372v.037a2.97,2.97,0,0,0,2.38,2.91,3.006,3.006,0,0,1-.782.1,2.848,2.848,0,0,1-.559-.055,2.969,2.969,0,0,0,2.771,2.061A5.953,5.953,0,0,1,.709,67.9,6.307,6.307,0,0,1,0,67.855,8.387,8.387,0,0,0,4.549,69.19a8.384,8.384,0,0,0,8.442-8.442l-.01-.384A5.925,5.925,0,0,0,14.465,58.831Z" transform="translate(-0.001 -57.441)" fill="#fff"/>
      </g>
    </g>
  </g>
</svg>
