<svg xmlns="http://www.w3.org/2000/svg" xmlns:xlink="http://www.w3.org/1999/xlink" width="14.464" height="9.944" viewBox="0 0 14.464 9.944">
  <defs>
    <clipPath id="clip-path">
      <rect width="14.464" height="9.944" fill="none"/>
    </clipPath>
  </defs>
  <g id="youtube" clip-path="url(#clip-path)">
    <g id="youtube-2" data-name="youtube" opacity="0.5">
      <g id="Groupe_81" data-name="Groupe 81" transform="translate(0 0)">
        <path id="Tracé_67" data-name="Tracé 67" d="M13.85,80.958c-.392-.7-.818-.826-1.685-.875S9.121,80,7.234,80s-4.069.024-4.934.082-1.292.177-1.688.876A8.532,8.532,0,0,0,0,84.969v.007a8.5,8.5,0,0,0,.612,4c.4.7.822.824,1.687.883s3.045.08,4.935.08,4.064-.03,4.931-.08,1.293-.185,1.685-.883a8.447,8.447,0,0,0,.614-4V84.97A8.465,8.465,0,0,0,13.85,80.958ZM5.424,87.684V82.26l4.52,2.712Z" transform="translate(0 -80)" fill="#fff"/>
      </g>
    </g>
  </g>
</svg>
